<svg width="80" height="30" viewBox="0 0 80 30" fill="none" xmlns="http://www.w3.org/2000/svg">
<path d="M14.0014 0H0V14.1909H6.22292V6.30711H14.0014V0Z" fill="#F7D300"/>
<path d="M29.5714 0H15.5699V14.1909H21.7929V6.30711H29.5714V0Z" fill="#3AD64C"/>
<path d="M14.0014 15.8091H0V29.9999H6.22292V22.1162H14.0014V15.8091Z" fill="#174EFF"/>
<path d="M29.5714 22.9037C29.5714 24.3069 29.1608 25.6785 28.3917 26.8453C27.6225 28.012 26.5293 28.9213 25.2502 29.4583C23.9711 29.9952 22.5637 30.1357 21.2058 29.862C19.848 29.5883 18.6007 28.9125 17.6218 27.9203C16.6428 26.9281 15.9761 25.664 15.706 24.2878C15.4359 22.9116 15.5746 21.4851 16.1044 20.1887C16.6342 18.8923 17.5314 17.7843 18.6825 17.0047C19.8336 16.2252 21.187 15.8091 22.5714 15.8091C24.4279 15.8091 26.2084 16.5566 27.5211 17.8871C28.8339 19.2175 29.5714 21.0221 29.5714 22.9037Z" fill="#F24444"/>
<path d="M43.1649 6.02741V8.75215H37.303V13.2927H34.223V0.615234H43.8933V3.35882H37.303V6.02741H43.1649Z" fill="#030304"/>
<path d="M48.1296 2.33667C48.1296 3.30174 47.4016 4.02072 46.3934 4.02072C45.3852 4.02072 44.682 3.30174 44.682 2.33667C44.682 1.87247 44.8639 1.42729 45.1878 1.09905C45.5117 0.770821 45.9509 0.586426 46.4089 0.586426C46.8669 0.586426 47.3061 0.770821 47.63 1.09905C47.9538 1.42729 48.1358 1.87247 48.1358 2.33667M44.906 5.13701H47.893V13.292H44.906V5.13701Z" fill="#030304"/>
<path d="M55.8006 3.73684L55.6684 6.76421H55.1284C53.0374 6.76421 51.8986 7.86793 51.8986 10.3215V13.2921H48.9119V3.79359H51.8988V5.61002C52.5708 4.47488 53.5976 3.66123 55.1286 3.66123C55.3549 3.65637 55.5808 3.68179 55.8006 3.73684Z" fill="#030304"/>
<path d="M61.1578 11.3242C61.9355 11.3242 62.3711 10.9836 62.3711 10.5673C62.3711 10.2519 62.1283 9.99971 61.4377 9.86714L59.5352 9.4887C57.7974 9.1733 56.8096 8.22728 56.8096 6.72626C56.8096 4.77747 58.4712 3.50977 60.8406 3.50977C63.1741 3.50977 64.7299 4.58835 65.0969 6.2345L62.3713 6.77998C62.2779 6.19335 61.7179 5.66369 60.8048 5.66369C60.002 5.66369 59.7406 6.06099 59.7406 6.40153C59.7406 6.66646 59.851 6.9314 60.4484 7.06376L62.6513 7.51781C64.4249 7.89626 65.2463 8.97485 65.2463 10.3749C65.2463 12.4751 63.4541 13.5726 60.99 13.5726C58.787 13.5726 56.903 12.7589 56.5858 10.8101L59.4966 10.2046C59.6272 11.0183 60.3554 11.3209 61.1582 11.3209" fill="#030304"/>
<path d="M71.4519 13.5598C69.1183 13.5598 67.7275 12.2763 67.7275 9.78506V6.19721H66.0317V3.80126H67.7275V0.630371H70.7075V3.80126H73.4751V6.19802H70.7097V9.48181C70.7097 10.4641 71.1765 10.8602 71.9543 10.8602C72.4303 10.8435 72.896 10.7144 73.3143 10.4834L74.0034 12.8611C73.2286 13.3178 72.3484 13.5588 71.4521 13.5596" fill="#030304"/>
<path d="M43.1649 21.836V24.5607H37.303V29.3699H34.223V16.4238H43.8933V19.1674H37.303V21.836H43.1649Z" fill="#030304"/>
<path d="M48.5502 26.6888C48.9208 26.6538 49.2845 26.5651 49.6302 26.4253L50.097 28.7905C49.557 29.054 48.98 29.3755 47.9002 29.3755C45.9634 29.3755 44.6782 28.054 44.6782 26.0917V16.4399H47.6582V25.8579C47.6582 26.3499 48.013 26.689 48.5528 26.689" fill="#030304"/>
<path d="M61.2166 24.3522C61.2166 27.3607 58.8644 29.3662 56.0826 29.3662C53.2451 29.3662 50.8943 27.3607 50.8943 24.3522C50.8943 21.3436 53.2443 19.3569 56.0826 19.3569C58.8642 19.3569 61.2166 21.3625 61.2166 24.3522ZM58.3416 24.3522C58.3416 22.8763 57.2402 21.8923 56.0826 21.8923C54.8692 21.8923 53.7693 22.8763 53.7693 24.3522C53.7693 25.828 54.8692 26.812 56.0826 26.812C57.24 26.812 58.3416 25.8469 58.3416 24.3522Z" fill="#030304"/>
<path d="M72.3325 24.3522C72.3325 27.3607 69.9804 29.3662 67.1986 29.3662C64.361 29.3662 62.0087 27.3607 62.0087 24.3522C62.0087 21.3436 64.361 19.3569 67.1988 19.3569C69.9804 19.3569 72.3327 21.3625 72.3327 24.3522M69.4578 24.3522C69.4578 22.8763 68.3564 21.8923 67.1988 21.8923C65.9854 21.8923 64.8838 22.8763 64.8838 24.3522C64.8838 25.828 65.9852 26.812 67.1988 26.812C68.3562 26.812 69.4578 25.8469 69.4578 24.3522Z" fill="#030304"/>
<path d="M79.9981 19.5462L79.8676 22.5735H79.3262C77.2352 22.5735 76.0964 23.6773 76.0964 26.1308V29.1014H73.1102V19.6029H76.0982V21.4193C76.7702 20.2842 77.797 19.4704 79.328 19.4704C79.5543 19.4653 79.7802 19.4907 80 19.546" fill="#030304"/>
</svg>
